<svg xmlns="http://www.w3.org/2000/svg" viewBox="2854 77 126.891 93.917">
  <defs>
    <style>
      .cls-1 {
        fill: #005cb9;
      }

      .cls-2 {
        fill: #fff;
      }

      .cls-3 {
        fill: #00af41;
      }
    </style>
  </defs>
  <g id="group-67" transform="translate(2854 77)">
    <g id="XMLID_100_" transform="translate(73.602 9.2)">
      <path id="XMLID_195_" class="cls-1" d="M100.8,12.6h1.325l2.061,5.667h0V12.6h1.325v9.421h-1.251L102.2,16.354h0v5.667h-1.325V12.6Z" transform="translate(-100.211 -12.526)"/>
      <path id="XMLID_192_" class="cls-1" d="M110.3,14.855a2.351,2.351,0,0,1,.221-1.03,2.644,2.644,0,0,1,.515-.736,1.527,1.527,0,0,1,.736-.442,2.3,2.3,0,0,1,1.619,0,1.527,1.527,0,0,1,.736.442,2.643,2.643,0,0,1,.515.736,2.351,2.351,0,0,1,.221,1.03v5a2.351,2.351,0,0,1-.221,1.03,2.643,2.643,0,0,1-.515.736,1.527,1.527,0,0,1-.736.442,2.3,2.3,0,0,1-1.619,0,1.527,1.527,0,0,1-.736-.442,2.644,2.644,0,0,1-.515-.736,2.138,2.138,0,0,1-.221-1.03Zm1.325,4.931a.853.853,0,0,0,.294.736,1.1,1.1,0,0,0,1.325,0,.775.775,0,0,0,.294-.736v-5a.853.853,0,0,0-.294-.736.9.9,0,0,0-.662-.221,1.028,1.028,0,0,0-.662.221.981.981,0,0,0-.294.736Z" transform="translate(-102.719 -12.5)"/>
      <path id="XMLID_189_" class="cls-1" d="M119.5,12.6h2.208c1.619,0,2.355.957,2.355,2.8a2.8,2.8,0,0,1-.294,1.4,2.2,2.2,0,0,1-.883.957l1.472,4.269h-1.4l-1.251-4.048h-.81v4.048h-1.325V12.6Zm1.325,4.269h.736a1.435,1.435,0,0,0,.589-.074.575.575,0,0,0,.294-.294,1.046,1.046,0,0,0,.147-.442c0-.147.074-.368.074-.662a1.827,1.827,0,0,0-.074-.662.789.789,0,0,0-.147-.442.735.735,0,0,0-.368-.294,1.435,1.435,0,0,0-.589-.074h-.736v2.944Z" transform="translate(-105.148 -12.526)"/>
      <path id="XMLID_187_" class="cls-1" d="M128.946,13.951H127.4V12.7h4.49v1.251h-1.546v8.17h-1.325v-8.17Z" transform="translate(-107.233 -12.553)"/>
      <path id="XMLID_185_" class="cls-1" d="M135.8,12.6h1.325v4.048h1.693V12.6h1.325v9.421h-1.325v-4.2h-1.693v4.2H135.8Z" transform="translate(-109.45 -12.526)"/>
      <path id="XMLID_183_" class="cls-1" d="M101.546,36.951H100V35.7h4.49v1.251h-1.546v8.17h-1.325v-8.17Z" transform="translate(-100 -18.624)"/>
      <path id="XMLID_181_" class="cls-1" d="M108.4,35.6h4.048v1.251H109.8v2.8h2.355V40.9H109.8v2.8h2.65v1.325H108.4Z" transform="translate(-102.217 -18.598)"/>
      <path id="XMLID_179_" class="cls-1" d="M117.514,40.19l-1.766-4.49h1.4l1.03,2.8,1.03-2.8h1.4l-1.766,4.49,1.914,4.931h-1.4l-1.178-3.165L117,45.121h-1.4Z" transform="translate(-104.118 -18.624)"/>
      <path id="XMLID_176_" class="cls-1" d="M126.287,35.6h1.1l2.134,9.421H128.2l-.368-2.061h-1.84l-.368,2.061H124.3Zm.589,2.723h0l-.662,3.386h1.325Z" transform="translate(-106.415 -18.598)"/>
      <path id="XMLID_174_" class="cls-1" d="M138.037,38.323h-1.325v-.294a1.484,1.484,0,0,0-.221-.81.812.812,0,0,0-.736-.368c-.221,0-.368,0-.442.074a.575.575,0,0,0-.294.294c-.074.147-.147.221-.147.368s-.074.294-.074.442v.442a3.188,3.188,0,0,1,.074.368c0,.147.147.147.221.221a1.2,1.2,0,0,0,.442.221l1.03.442a6.843,6.843,0,0,1,.736.368c.221.147.294.368.442.515.074.221.147.442.221.736,0,.294.074.589.074.957a5.684,5.684,0,0,1-.147,1.1,2.455,2.455,0,0,1-.368.883,2,2,0,0,1-.736.589,2.458,2.458,0,0,1-1.1.221,3.163,3.163,0,0,1-.883-.147,6.475,6.475,0,0,1-.736-.442,2.642,2.642,0,0,1-.515-.736,1.867,1.867,0,0,1-.147-.883v-.515h1.325v.442a1.187,1.187,0,0,0,.221.662.775.775,0,0,0,.736.294c.221,0,.442,0,.515-.074a.574.574,0,0,0,.294-.294c.074-.147.074-.294.147-.442V41.783a.562.562,0,0,0-.147-.368l-.221-.221a1.608,1.608,0,0,0-.368-.221l-.957-.368a2.262,2.262,0,0,1-1.178-.957,2.919,2.919,0,0,1-.294-1.472,4.971,4.971,0,0,1,.147-1.03,1.754,1.754,0,0,1,.442-.81,1.683,1.683,0,0,1,.736-.515,2.351,2.351,0,0,1,1.03-.221,2.037,2.037,0,0,1,.957.221,2.644,2.644,0,0,1,.736.515,1.738,1.738,0,0,1,.442.662,2.645,2.645,0,0,1,.147.81v.515Z" transform="translate(-108.817 -18.598)"/>
      <path id="XMLID_172_" class="cls-1" d="M100.9,58.6h1.325l1.766,5h0l1.693-5h1.325v9.421h-1.325V62.28h0l-1.325,4.048H103.7l-1.325-4.048h0v5.741h-1.325V58.6Z" transform="translate(-100.238 -24.669)"/>
      <path id="XMLID_170_" class="cls-1" d="M116.769,65.987a3.7,3.7,0,0,1-.147.883,2.568,2.568,0,0,1-.442.662,2.015,2.015,0,0,1-1.546.589,3.163,3.163,0,0,1-.883-.147,2.568,2.568,0,0,1-.662-.442,1.738,1.738,0,0,1-.442-.662,1.867,1.867,0,0,1-.147-.883V58.7h1.325v7.213a.977.977,0,0,0,.221.736.9.9,0,0,0,1.178,0,1.1,1.1,0,0,0,.221-.736V58.7h1.325v7.287Z" transform="translate(-103.3 -24.696)"/>
      <path id="XMLID_168_" class="cls-1" d="M121.5,58.6h1.325l2.061,5.667h0V58.6h1.325v9.421h-1.251L122.9,62.354h0v5.667h-1.325V58.6Z" transform="translate(-105.676 -24.669)"/>
      <path id="XMLID_166_" class="cls-1" d="M131,58.6h1.325v9.421H131Z" transform="translate(-108.183 -24.669)"/>
      <path id="XMLID_164_" class="cls-1" d="M140.443,65.907a2.647,2.647,0,0,1-.147.81,1.5,1.5,0,0,1-.442.662,1.738,1.738,0,0,1-.662.442,2.646,2.646,0,0,1-.81.147,3.3,3.3,0,0,1-.81-.074,2.3,2.3,0,0,1-.736-.368,1.6,1.6,0,0,1-.515-.662,2.458,2.458,0,0,1-.221-1.1V60.534a3.7,3.7,0,0,1,.147-.883,1.072,1.072,0,0,1,.442-.662,1.737,1.737,0,0,1,.662-.442,2.723,2.723,0,0,1,1.766,0,2.568,2.568,0,0,1,.662.442,1.527,1.527,0,0,1,.442.736,1.867,1.867,0,0,1,.147.883v.515h-1.325v-.442a.9.9,0,0,0-.221-.662.669.669,0,0,0-.589-.294c-.368,0-.589.074-.662.294a1.336,1.336,0,0,0-.147.81v4.858a1.47,1.47,0,0,0,.147.662.717.717,0,0,0,.662.294.556.556,0,0,0,.294-.074c.147-.074.221-.074.294-.147a1.017,1.017,0,0,0,.221-.294.934.934,0,0,0,.074-.442v-.442h1.325v.662Z" transform="translate(-109.53 -24.616)"/>
      <path id="XMLID_162_" class="cls-1" d="M145,58.6h1.325v9.421H145Z" transform="translate(-111.879 -24.669)"/>
      <path id="XMLID_159_" class="cls-1" d="M150.1,58.6h2.061a3.73,3.73,0,0,1,.957.147,1.919,1.919,0,0,1,1.178,1.4,6.6,6.6,0,0,1,.147,1.325,4.213,4.213,0,0,1-.074,1.03,2.638,2.638,0,0,1-.294.81,3.491,3.491,0,0,1-.736.736,2.847,2.847,0,0,1-1.251.294h-.662v3.68H150.1Zm1.325,4.49h.662a1.47,1.47,0,0,0,.662-.147,1.606,1.606,0,0,0,.368-.294,1.064,1.064,0,0,0,.147-.515V60.808a1.064,1.064,0,0,0-.147-.515.735.735,0,0,0-.294-.368,1.387,1.387,0,0,0-.589-.147H151.5V63.09Z" transform="translate(-113.225 -24.669)"/>
      <path id="XMLID_133_" class="cls-1" d="M159.587,58.6h1.1l2.134,9.421H161.5l-.368-2.061h-1.84l-.368,2.061H157.6Zm.515,2.723h0l-.662,3.386h1.325Z" transform="translate(-115.205 -24.669)"/>
      <path id="XMLID_131_" class="cls-1" d="M167,58.6h1.325v8.1h2.65v1.325H167Z" transform="translate(-117.686 -24.669)"/>
      <path id="XMLID_129_" class="cls-1" d="M106.362,91.121h-1.251l-1.03-6.109h0l-1.03,6.109H101.8L100.4,81.7h1.4l.662,5.962h0l1.03-5.962h1.03l1.1,6.109h0l.662-6.109h1.4Z" transform="translate(-100.106 -30.767)"/>
      <path id="XMLID_126_" class="cls-1" d="M113.787,81.6h1.1l2.134,9.421H115.7l-.368-2.061h-1.84l-.368,2.061H111.8Zm.589,2.723h0l-.662,3.386h1.325Z" transform="translate(-103.115 -30.741)"/>
      <path id="XMLID_124_" class="cls-1" d="M120.946,82.951H119.4V81.7h4.49v1.251h-1.546v8.17h-1.325v-8.17Z" transform="translate(-105.121 -30.767)"/>
      <path id="XMLID_122_" class="cls-1" d="M127.8,81.6h4.048v1.251H129.2v2.8h2.355V86.9H129.2v2.8h2.65v1.325H127.8Z" transform="translate(-107.339 -30.741)"/>
      <path id="XMLID_119_" class="cls-1" d="M135.9,81.6h2.208c1.619,0,2.355.957,2.355,2.8a2.8,2.8,0,0,1-.294,1.4,2.2,2.2,0,0,1-.883.957l1.472,4.269h-1.4l-1.251-4.048h-.81v4.048h-1.325V81.6Zm1.325,4.269h.736a1.435,1.435,0,0,0,.589-.074.575.575,0,0,0,.294-.294,1.047,1.047,0,0,0,.147-.442c0-.147.074-.368.074-.662a1.828,1.828,0,0,0-.074-.662.789.789,0,0,0-.147-.442.735.735,0,0,0-.368-.294,1.435,1.435,0,0,0-.589-.074h-.736v2.944Z" transform="translate(-109.477 -30.741)"/>
      <path id="XMLID_116_" class="cls-1" d="M100.874,104.6h1.987a2.387,2.387,0,0,1,1.766.662,2.346,2.346,0,0,1,.589,1.766v4.416a2.7,2.7,0,0,1-.662,1.987,2.449,2.449,0,0,1-1.84.662H100.8V104.6Zm1.325,8.17h.589a.917.917,0,0,0,.81-.294,1.57,1.57,0,0,0,.221-.883V107.1a1.57,1.57,0,0,0-.221-.883.917.917,0,0,0-.81-.294H102.2Z" transform="translate(-100.211 -36.812)"/>
      <path id="XMLID_114_" class="cls-1" d="M110.1,104.6h1.325v9.421H110.1Z" transform="translate(-102.666 -36.812)"/>
      <path id="XMLID_112_" class="cls-1" d="M119.437,107.323h-1.325v-.294a1.483,1.483,0,0,0-.221-.81.812.812,0,0,0-.736-.368c-.221,0-.368,0-.442.074a.575.575,0,0,0-.294.294c-.074.147-.147.221-.147.368s-.074.294-.074.442v.442a3.19,3.19,0,0,1,.074.368c0,.147.147.147.221.221a1.2,1.2,0,0,0,.442.221l1.03.442a6.844,6.844,0,0,1,.736.368c.221.147.294.368.442.515.074.221.147.442.221.736,0,.294.074.589.074.957a5.682,5.682,0,0,1-.147,1.1,2.456,2.456,0,0,1-.368.883,2,2,0,0,1-.736.589,2.458,2.458,0,0,1-1.1.221,3.163,3.163,0,0,1-.883-.147,6.474,6.474,0,0,1-.736-.442,2.643,2.643,0,0,1-.515-.736,1.867,1.867,0,0,1-.147-.883v-.515h1.325v.442a1.187,1.187,0,0,0,.221.662.775.775,0,0,0,.736.294c.221,0,.442,0,.515-.074a.574.574,0,0,0,.294-.294c.074-.147.074-.294.147-.442v-1.178a.562.562,0,0,0-.147-.368l-.221-.221a1.608,1.608,0,0,0-.368-.221l-.957-.368a2.262,2.262,0,0,1-1.178-.957,2.919,2.919,0,0,1-.294-1.472,4.972,4.972,0,0,1,.147-1.03,1.755,1.755,0,0,1,.442-.81,1.682,1.682,0,0,1,.736-.515,2.351,2.351,0,0,1,1.03-.221,2.038,2.038,0,0,1,.957.221,2.644,2.644,0,0,1,.736.515,1.738,1.738,0,0,1,.442.662,2.645,2.645,0,0,1,.147.81v.515Z" transform="translate(-103.907 -36.812)"/>
      <path id="XMLID_110_" class="cls-1" d="M124.646,105.951H123.1V104.7h4.49v1.251H125.97v8.17h-1.325Z" transform="translate(-106.098 -36.839)"/>
      <path id="XMLID_107_" class="cls-1" d="M131.4,104.6h2.208c1.619,0,2.355.957,2.355,2.8a2.8,2.8,0,0,1-.294,1.4,2.2,2.2,0,0,1-.883.957l1.472,4.269h-1.4l-1.251-4.048h-.81v4.048h-1.325V104.6Zm1.4,4.269h.736a1.435,1.435,0,0,0,.589-.074.574.574,0,0,0,.294-.294,1.046,1.046,0,0,0,.147-.442c0-.147.074-.368.074-.662a1.827,1.827,0,0,0-.074-.662.789.789,0,0,0-.147-.442.735.735,0,0,0-.368-.294,1.435,1.435,0,0,0-.589-.074h-.736v2.944Z" transform="translate(-108.289 -36.812)"/>
      <path id="XMLID_105_" class="cls-1" d="M140.6,104.6h1.325v9.421H140.6Z" transform="translate(-110.717 -36.812)"/>
      <path id="XMLID_103_" class="cls-1" d="M150.043,111.907a2.645,2.645,0,0,1-.147.81,1.5,1.5,0,0,1-.442.662,1.738,1.738,0,0,1-.662.442,2.646,2.646,0,0,1-.81.147,3.3,3.3,0,0,1-.81-.074,2.3,2.3,0,0,1-.736-.368,1.6,1.6,0,0,1-.515-.662,2.458,2.458,0,0,1-.221-1.1v-5.226a3.694,3.694,0,0,1,.147-.883,1.072,1.072,0,0,1,.442-.662,1.738,1.738,0,0,1,.662-.442,2.723,2.723,0,0,1,1.766,0,2.569,2.569,0,0,1,.662.442,1.527,1.527,0,0,1,.442.736,1.867,1.867,0,0,1,.147.883v.515h-1.325v-.442a.9.9,0,0,0-.221-.662.669.669,0,0,0-.589-.294c-.368,0-.589.074-.662.294a1.336,1.336,0,0,0-.147.81v4.858a1.469,1.469,0,0,0,.147.662.717.717,0,0,0,.662.294.556.556,0,0,0,.294-.074c.147-.074.221-.074.294-.147a1.015,1.015,0,0,0,.221-.294.933.933,0,0,0,.074-.442v-.442h1.325v.662Z" transform="translate(-112.064 -36.759)"/>
      <path id="XMLID_101_" class="cls-1" d="M155.146,105.951H153.6V104.7h4.49v1.251h-1.546v8.17h-1.325v-8.17Z" transform="translate(-114.149 -36.839)"/>
    </g>
    <g id="XMLID_1_">
      <path id="XMLID_99_" class="cls-1" d="M69.481,86.63c.294,4.711-4.2,7.287-6.551,7.287H6.551A6.743,6.743,0,0,1,0,87V6.919C0,4.49,1.4,0,6.551,0H63.3c2.429,0,6.035,1.546,6.183,6.919Z"/>
      <path id="XMLID_98_" class="cls-2" d="M66.167,86.039a6.186,6.186,0,0,1-5.52,6.551H13.32A5.912,5.912,0,0,1,7.8,86.334V14.056C7.8,11.922,8.978,7.8,13.32,7.8H60.941c1.987,0,5.079,1.4,5.226,6.256Z" transform="translate(-2.059 -2.059)"/>
      <path id="XMLID_97_" class="cls-3" d="M65.349,80.874a5.777,5.777,0,0,1-5.226,5.962h-44.9A5.46,5.46,0,0,1,10,81.168v-65.8C10,13.38,11.1,9.7,15.226,9.7H60.418c1.914,0,4.784,1.251,4.931,5.667Z" transform="translate(-2.64 -2.561)"/>
      <path id="XMLID_96_" class="cls-2" d="M8,107.1s.294,4.2,3.533,4.784c0,0,3.239.515,5-1.251,0,0,2.355,2.87,6.624,0a5.191,5.191,0,0,0,6.992,0,4.946,4.946,0,0,0,6.845,0s2.87,3.165,6.919,0a4.771,4.771,0,0,0,7.066,0s2.723,3.165,7.213-.074c0,0,2.5,2.134,5.226,1.178,0,0,1.03-.957,1.766-4.343l.736,1.1-.736,5.594-55.2,1.178-1.546-3.827Z" transform="translate(-2.112 -28.272)"/>
      <path id="XMLID_52_" class="cls-1" d="M7.383,113.6s0,4.2,3.533,4.784c0,0,3.239.515,5-1.251,0,0,2.355,2.871,6.624,0a5.191,5.191,0,0,0,6.992,0,4.946,4.946,0,0,0,6.845,0s2.871,3.165,6.919,0c0,0,3.68,3.754,7.066,0,0,0,2.723,3.165,7.213-.074,0,0,2.5,2.134,5.226,1.178a4.292,4.292,0,0,0,3.533-3.68l2.723,2.429-3.9,4.269-55.717.515L6.5,117.648Z" transform="translate(-1.716 -29.988)"/>
      <path id="XMLID_51_" class="cls-3" d="M13.335,111.826s-3.459.442-3.239-4.269l6.919-.957Z" transform="translate(-2.663 -28.14)"/>
      <path id="XMLID_50_" class="cls-3" d="M75.8,106l3.68,5.741s3.459.515,3.239-4.637" transform="translate(-20.009 -27.981)"/>
      <path id="XMLID_49_" class="cls-2" d="M64.783,77.384c.221,3.607-2.134,5.667-4.711,5.594H15.911c-3.091.221-4.711-1.546-4.711-5.3V16c0-1.84,1.03-5.3,5.079-5.3H60c1.84,0,4.637,1.178,4.784,5.3Z" transform="translate(-2.957 -2.825)"/>
      <g id="XMLID_4_" transform="translate(14.868 14.279)">
        <g id="XMLID_6_">
          <path id="XMLID_48_" class="cls-3" d="M65.8,92.089a13.813,13.813,0,0,0-3.386,1.4,7.194,7.194,0,0,1-4.858,1.693s-4.122-.147-6.256-1.766c0,0-2.134-1.4-3.754-1.178l-.147-.294.883-.147a15.037,15.037,0,0,1,9.348-3.9C57.557,87.894,63.225,87.379,65.8,92.089Z" transform="translate(-27.38 -37.476)"/>
          <path id="XMLID_42_" class="cls-3" d="M65.485,78.536A11.191,11.191,0,0,0,57.168,73.9s-2.944-.221-9.568,4.269l.074.221a2.988,2.988,0,0,1,2.208-.662,6.745,6.745,0,0,1,2.944,1.693A9.283,9.283,0,0,0,57.9,81.039s1.4.221,4.2-1.619A8.934,8.934,0,0,1,65.485,78.536Z" transform="translate(-27.433 -33.786)"/>
          <path id="XMLID_16_" class="cls-3" d="M65.406,63.941s-1.914-2.723-3.975-3.386a13.558,13.558,0,0,0-4.416-.957,9.668,9.668,0,0,0-4.2,1.178.743.743,0,0,1-.368.147s-2.208,1.546-2.723,1.914A3.84,3.84,0,0,1,47.3,63.5l.074.442a4.864,4.864,0,0,1,3.9.294,6.714,6.714,0,0,0,5.079,2.723,7.175,7.175,0,0,0,5.373-1.693C64.229,63.205,64.155,63.72,65.406,63.941Z" transform="translate(-27.354 -30.01)"/>
          <path id="XMLID_15_" class="cls-3" d="M64.755,41.953a8.631,8.631,0,0,0-7.875-.589s-5.373,2.429-6.183,5.3c0,0-1.693,3.386-2.576,3.312l-.221.589s2.282-1.03,3.607-.589a7.9,7.9,0,0,0,4.637-.074,11.142,11.142,0,0,0,6.551-4.931C62.547,45.045,63.8,42.248,64.755,41.953Z" transform="translate(-27.512 -25.025)"/>
          <path id="XMLID_14_" class="cls-3" d="M47.351,35.3s3.607-1.766,3.827-7.507A11.48,11.48,0,0,0,46.541,19.4a1.888,1.888,0,0,1,.221,1.766,37.862,37.862,0,0,0-2.576,5.667s-.883,2.134.294,5.741A17.918,17.918,0,0,0,46.1,36.329Z" transform="translate(-26.448 -19.4)"/>
          <path id="XMLID_12_" class="cls-3" d="M41.819,43.8a6.086,6.086,0,0,1-2.134-3.239s-1.693-5.594-8.906-5.962c0,0-3.754-.074-5.079,1.1,0,0,.957.074,1.03.589.074.442,1.03,4.343,3.827,5.815a11.794,11.794,0,0,0,7.213,1.766s1.84-.442,2.355-.147a1.447,1.447,0,0,1,1.251,1.251Z" transform="translate(-21.652 -23.412)"/>
          <path id="XMLID_11_" class="cls-3" d="M40.58,55.856a27.813,27.813,0,0,0-6.845-4.416s-4.122-1.251-6.771.442c0,0-3.9,2.282-4.563,3.312,0,0,1.325.074,1.693.442a9.809,9.809,0,0,0,6.183,2.355,14.012,14.012,0,0,0,5.815-1.1s2.8-1.693,4.269-.589Z" transform="translate(-20.781 -27.74)"/>
          <path id="XMLID_10_" class="cls-3" d="M40.416,69.93l-.589-.147s-4.2-3.68-6.992-4.269a11.564,11.564,0,0,0-6.992.736s-4.122,2.355-4.343,3.312a4.561,4.561,0,0,1,2.65.589s3.165,2.429,6.183,2.282c0,0,3.9-.147,6.33-1.914,0,0,2.355-1.178,3.68.147Z" transform="translate(-20.543 -31.509)"/>
          <path id="XMLID_9_" class="cls-3" d="M40.127,83.325s-5.3-5.3-9.863-4.931c0,0-6.4,0-8.464,5a1.857,1.857,0,0,1,2.208,0,9.44,9.44,0,0,0,6.7,2.282s3.533.074,5.52-1.84a4.119,4.119,0,0,1,2.134-1.251,2.1,2.1,0,0,1,1.84,1.178" transform="translate(-20.622 -34.968)"/>
          <path id="XMLID_8_" class="cls-3" d="M39.7,97.712a13.7,13.7,0,0,0-6.919-5.667,11.307,11.307,0,0,0-7.949.662S21.23,94.621,20.2,96.682c0,0,.736-.883,2.282-.074,0,0,3.386,2.134,5.373,2.355a10.856,10.856,0,0,0,5.962-.589,4.784,4.784,0,0,0,1.914-1.1,3.142,3.142,0,0,1,1.178-.736,1.94,1.94,0,0,1,1.325-.147,3.736,3.736,0,0,1,1.325,1.84" transform="translate(-20.2 -38.462)"/>
          <path id="XMLID_7_" class="cls-3" d="M47.793,41.1v9.2l-.368.442V89.678H46.1V53.465l.294-.368V45.811l.294-.589V41.1Z" transform="translate(-27.037 -25.128)"/>
        </g>
        <path id="XMLID_5_" class="cls-3" d="M46.111,104.647s.368,2.87,4.637,3.239v.883H41.4v-.957s3.459-.368,3.459-3.312" transform="translate(-25.796 -41.864)"/>
      </g>
      <path id="XMLID_3_" class="cls-2" d="M79.3,112.338s3.165,1.03,4.269-3.238l.515.074-.515,3.9-3.533.883Z" transform="translate(-20.933 -28.8)"/>
    </g>
  </g>
</svg>
